{
  "accessors": [
    {
      "bufferView": 2,
      "componentType": 5126,
      "count": 18896,
      "max": [
        1.4907951354980469,
        1.6650023460388184,
        1.5707547618148965e-07
      ],
      "min": [
        -1.4907951354980469,
        -1.2863541841506958,
        -0.3810097575187683
      ],
      "type": "VEC3"
    },
    {
      "bufferView": 2,
      "byteOffset": 226752,
      "componentType": 5126,
      "count": 18896,
      "max": [
        1.0,
        1.0,
        1.0
      ],
      "min": [
        -1.0,
        -1.0,
        -1.0
      ],
      "type": "VEC3"
    },
    {
      "bufferView": 1,
      "componentType": 5126,
      "count": 18896,
      "max": [
        0.0,
        0.0
      ],
      "min": [
        0.0,
        0.0
      ],
      "type": "VEC2"
    },
    {
      "bufferView": 0,
      "componentType": 5125,
      "count": 29232,
      "type": "SCALAR"
    },
    {
      "bufferView": 2,
      "byteOffset": 453504,
      "componentType": 5126,
      "count": 2522,
      "max": [
        1.4596598148345947,
        0.2656385004520416,
        1.4596586227416992
      ],
      "min": [
        -1.4596588611602783,
        -4.725697040557861,
        -1.459659218788147
      ],
      "type": "VEC3"
    },
    {
      "bufferView": 2,
      "byteOffset": 483768,
      "componentType": 5126,
      "count": 2522,
      "max": [
        1.0,
        0.9999864101409912,
        1.0
      ],
      "min": [
        -1.0,
        -0.9999864101409912,
        -1.0
      ],
      "type": "VEC3"
    },
    {
      "bufferView": 1,
      "byteOffset": 151168,
      "componentType": 5126,
      "count": 2522,
      "max": [
        1.0,
        1.0
      ],
      "min": [
        0.0,
        0.0
      ],
      "type": "VEC2"
    },
    {
      "bufferView": 0,
      "byteOffset": 116928,
      "componentType": 5125,
      "count": 13824,
      "type": "SCALAR"
    },
    {
      "bufferView": 2,
      "byteOffset": 514032,
      "componentType": 5126,
      "count": 768,
      "max": [
        0.582247793674469,
        0.5822470784187317,
        0.008057684637606144
      ],
      "min": [
        -0.5822499990463257,
        -5.092287063598633,
        -0.6663365364074707
      ],
      "type": "VEC3"
    },
    {
      "bufferView": 2,
      "byteOffset": 523248,
      "componentType": 5126,
      "count": 768,
      "max": [
        1.0,
        1.0,
        0.9999264478683472
      ],
      "min": [
        -1.0,
        -1.0,
        -0.9999264478683472
      ],
      "type": "VEC3"
    },
    {
      "bufferView": 1,
      "byteOffset": 171344,
      "componentType": 5126,
      "count": 768,
      "max": [
        0.0,
        0.0
      ],
      "min": [
        0.0,
        0.0
      ],
      "type": "VEC2"
    },
    {
      "bufferView": 0,
      "byteOffset": 172224,
      "componentType": 5125,
      "count": 4608,
      "type": "SCALAR"
    },
    {
      "bufferView": 2,
      "byteOffset": 532464,
      "componentType": 5126,
      "count": 272,
      "max": [
        1.5458470582962036,
        0.16106508672237396,
        0.24006277322769165
      ],
      "min": [
        -1.545846939086914,
        -0.7969526052474976,
        -0.24006277322769165
      ],
      "type": "VEC3"
    },
    {
      "bufferView": 2,
      "byteOffset": 535728,
      "componentType": 5126,
      "count": 272,
      "max": [
        1.0,
        0.0,
        1.0
      ],
      "min": [
        -1.0,
        -0.9978610277175903,
        -1.0
      ],
      "type": "VEC3"
    },
    {
      "bufferView": 1,
      "byteOffset": 177488,
      "componentType": 5126,
      "count": 272,
      "max": [
        0.0,
        0.0
      ],
      "min": [
        0.0,
        0.0
      ],
      "type": "VEC2"
    },
    {
      "bufferView": 0,
      "byteOffset": 190656,
      "componentType": 5125,
      "count": 1296,
      "type": "SCALAR"
    }
  ],
  "asset": {
    "extras": {
      "author": "tkkjee (https://sketchfab.com/tkkjee)",
      "license": "CC-BY-4.0 (http://creativecommons.org/licenses/by/4.0/)",
      "source": "https://sketchfab.com/3d-models/calendar-ce5ed0336d164d6390203a16d02130f6",
      "title": "Calendar"
    },
    "generator": "Sketchfab-12.68.0",
    "version": "2.0"
  },
  "bufferViews": [
    {
      "buffer": 0,
      "byteLength": 195840,
      "name": "floatBufferViews",
      "target": 34963
    },
    {
      "buffer": 0,
      "byteLength": 179664,
      "byteOffset": 195840,
      "byteStride": 8,
      "name": "floatBufferViews",
      "target": 34962
    },
    {
      "buffer": 0,
      "byteLength": 538992,
      "byteOffset": 375504,
      "byteStride": 12,
      "name": "floatBufferViews",
      "target": 34962
    }
  ],
  "buffers": [
    {
      "byteLength": 914496,
      "uri": "scene.bin"
    }
  ],
  "materials": [
    {
      "doubleSided": true,
      "name": "paper",
      "pbrMetallicRoughness": {
        "roughnessFactor": 0.7192185846842355
      }
    },
    {
      "doubleSided": true,
      "name": "metall",
      "pbrMetallicRoughness": {
        "roughnessFactor": 0.30573915528584805
      }
    },
    {
      "doubleSided": true,
      "name": "browser_frame.004",
      "pbrMetallicRoughness": {
        "baseColorFactor": [
          0.7158558931551351,
          0.4203316217051176,
          0.1501485145531284,
          1.0
        ],
        "roughnessFactor": 0.5185594498291357
      }
    },
    {
      "doubleSided": true,
      "name": "browser_frame.002",
      "pbrMetallicRoughness": {
        "baseColorFactor": [
          1.0,
          0.44929436949727614,
          0.011750637479589597,
          1.0
        ],
        "roughnessFactor": 0.327731
      }
    }
  ],
  "meshes": [
    {
      "name": "Object_0",
      "primitives": [
        {
          "attributes": {
            "NORMAL": 1,
            "POSITION": 0,
            "TEXCOORD_0": 2
          },
          "indices": 3,
          "material": 0,
          "mode": 4
        }
      ]
    },
    {
      "name": "Object_1",
      "primitives": [
        {
          "attributes": {
            "NORMAL": 5,
            "POSITION": 4,
            "TEXCOORD_0": 6
          },
          "indices": 7,
          "material": 1,
          "mode": 4
        }
      ]
    },
    {
      "name": "Object_2",
      "primitives": [
        {
          "attributes": {
            "NORMAL": 9,
            "POSITION": 8,
            "TEXCOORD_0": 10
          },
          "indices": 11,
          "material": 2,
          "mode": 4
        }
      ]
    },
    {
      "name": "Object_3",
      "primitives": [
        {
          "attributes": {
            "NORMAL": 13,
            "POSITION": 12,
            "TEXCOORD_0": 14
          },
          "indices": 15,
          "material": 3,
          "mode": 4
        }
      ]
    }
  ],
  "nodes": [
    {
      "children": [
        1
      ],
      "matrix": [
        1.0,
        0.0,
        0.0,
        0.0,
        0.0,
        2.220446049250313e-16,
        -1.0,
        0.0,
        0.0,
        1.0,
        2.220446049250313e-16,
        0.0,
        0.0,
        0.0,
        0.0,
        1.0
      ],
      "name": "Sketchfab_model"
    },
    {
      "children": [
        2
      ],
      "name": "root"
    },
    {
      "children": [
        3
      ],
      "matrix": [
        1.0,
        0.0,
        0.0,
        0.0,
        0.0,
        2.220446049250313e-16,
        1.0,
        0.0,
        0.0,
        -1.0,
        2.220446049250313e-16,
        0.0,
        0.0,
        0.0,
        0.0,
        1.0
      ],
      "name": "GLTF_SceneRootNode"
    },
    {
      "children": [
        4,
        5,
        7,
        10
      ],
      "matrix": [
        0.8900365233421326,
        0.0,
        0.0,
        0.0,
        0.0,
        0.8900365233421326,
        0.0,
        0.0,
        0.0,
        0.0,
        0.8900365233421326,
        0.0,
        0.0,
        0.0,
        0.0,
        1.0
      ],
      "name": "Plane.044_5"
    },
    {
      "mesh": 0,
      "name": "Object_4"
    },
    {
      "children": [
        6
      ],
      "matrix": [
        1.2156249895138444e-07,
        0.3605325818061624,
        0.0,
        0.0,
        -0.3605325818061624,
        1.2156249895138444e-07,
        0.0,
        0.0,
        0.0,
        0.0,
        0.36053258180618286,
        0.0,
        -0.8039981722831726,
        1.6072852611541748,
        -0.18976162374019623,
        1.0
      ],
      "name": "BezierCircle.001_0"
    },
    {
      "mesh": 1,
      "name": "Object_6"
    },
    {
      "children": [
        8
      ],
      "matrix": [
        1.2156249895138444e-07,
        0.3605325818061624,
        0.0,
        0.0,
        -0.3605325818061624,
        1.2156249895138444e-07,
        0.0,
        0.0,
        0.0,
        0.0,
        0.36053258180618286,
        0.0,
        -0.8039981722831726,
        1.6072852611541748,
        -0.18976162374019623,
        1.0
      ],
      "name": "BezierCircle.022_3"
    },
    {
      "children": [
        9
      ],
      "matrix": [
        0.9889167547225952,
        0.0,
        0.0,
        0.0,
        0.0,
        0.9889167547225952,
        0.0,
        0.0,
        0.0,
        0.0,
        1.97559654712677,
        0.0,
        -1.0556888580322266,
        -2.1457672119140625e-06,
        0.6511958241462708,
        1.0
      ],
      "name": "BezierCircle.021_2"
    },
    {
      "mesh": 2,
      "name": "Object_9"
    },
    {
      "children": [
        11
      ],
      "matrix": [
        0.9710987210273743,
        0.0,
        0.0,
        0.0,
        0.0,
        0.9710987210273743,
        0.0,
        0.0,
        0.0,
        0.0,
        0.8256413340568542,
        0.0,
        0.0,
        1.5359305143356323,
        -0.18941931426525116,
        1.0
      ],
      "name": "Plane.043_4"
    },
    {
      "mesh": 3,
      "name": "Object_11"
    }
  ],
  "scene": 0,
  "scenes": [
    {
      "name": "Sketchfab_Scene",
      "nodes": [
        0
      ]
    }
  ]
}
